<svg width="57" height="55" viewBox="0 0 57 55" fill="none" xmlns="http://www.w3.org/2000/svg">
<path d="M17.7778 0.531183C11.7866 2.99495 6.83512 7.45984 3.76691 13.1651C0.698695 18.8703 -0.29638 25.463 0.951232 31.8196C2.19884 38.1763 5.61195 43.9037 10.609 48.026C15.606 52.1483 21.8779 54.4104 28.3558 54.4269C34.8337 54.4434 41.1169 52.2132 46.1349 48.1164C51.1529 44.0196 54.5951 38.3096 55.875 31.9594C57.155 25.6092 56.1935 19.0116 53.1543 13.2908C50.1152 7.56998 45.1865 3.07995 39.208 0.585721L28.427 26.427L17.7778 0.531183Z" fill="url(#paint0_linear_1_103)"/>
<defs>
<linearGradient id="paint0_linear_1_103" x1="24.7846" y1="-1.34994" x2="25.2056" y2="54.2253" gradientUnits="userSpaceOnUse">
<stop stop-color="#7A87FB"/>
<stop offset="1" stop-color="#FFD49C"/>
</linearGradient>
</defs>
</svg>
